<?xml version="1.0" encoding="iso-8859-1"?>
<!-- Generator: Adobe Illustrator 19.0.0, SVG Export Plug-In . SVG Version: 6.00 Build 0)  -->
<svg version="1.1" id="Capa_1" xmlns="http://www.w3.org/2000/svg" xmlns:xlink="http://www.w3.org/1999/xlink" x="0px" y="0px"
	 viewBox="0 0 512 512" style="enable-background:new 0 0 512 512;" xml:space="preserve">
<polygon style="fill:#5C87BD;" points="306.488,116.919 177.7,116.919 157.095,140.098 177.7,171.003 306.488,171.003 "/>
<path style="fill:#FFF9EB;" d="M139.084,116.919c-8.534,0-15.453,6.919-15.453,15.453v23.179c0,8.534,6.919,15.453,15.453,15.453
	H177.7v-54.085H139.084z"/>
<polygon style="fill:#3F5F94;" points="306.488,140.098 157.095,140.098 177.7,171.003 306.488,171.003 "/>
<path style="fill:#D3CDBF;" d="M123.631,140.098v15.453c0,8.534,6.919,15.453,15.453,15.453H177.7v-30.905H123.631z"/>
<polygon style="fill:#5C87BD;" points="298.246,225.089 167.397,225.089 167.397,248.268 167.397,279.174 298.246,279.174 "/>
<path style="fill:#3F5F94;" d="M167.397,248.268c0,20.533,0,39.37,0,84.99h130.848c0-45.629,0-64.451,0-84.99H167.397z"/>
<polygon style="fill:#D3CDBF;" points="296.185,171.003 167.397,171.003 146.793,194.183 167.397,225.088 296.185,225.088 "/>
<path style="fill:#3F5F94;" d="M128.781,171.003c-8.534,0-15.453,6.919-15.453,15.453v23.179c0,8.534,6.919,15.453,15.453,15.453
	h38.616v-54.085H128.781z"/>
<path style="fill:#FF5368;" d="M496.547,364.163h-38.632l-20.605,23.179l20.605,30.905h38.632c8.534,0,15.453-6.919,15.453-15.453
	v-23.179C512,371.082,505.081,364.163,496.547,364.163z"/>
<polygon style="fill:#FFF9EB;" points="457.915,364.163 329.127,364.163 308.523,387.343 329.127,418.248 457.915,418.248 "/>
<path style="fill:#FF5368;" d="M290.511,364.163c-8.534,0-15.453,6.919-15.453,15.453v23.179c0,8.534,6.919,15.453,15.453,15.453
	h38.616v-54.085H290.511z"/>
<path style="fill:#C5324F;" d="M496.547,364.163h-15.453v23.179h-23.179h-20.605l20.605,30.905h38.632
	c8.534,0,15.453-6.919,15.453-15.453v-23.179C512,371.082,505.081,364.163,496.547,364.163z"/>
<polygon style="fill:#D3CDBF;" points="457.915,387.343 308.523,387.343 329.127,418.248 457.915,418.248 "/>
<path style="fill:#C5324F;" d="M275.058,387.343v15.453c0,8.534,6.919,15.453,15.453,15.453h38.616v-30.905H275.058z"/>
<path style="fill:#FF5368;" d="M465.64,310.079h-38.632l-20.605,23.179l20.605,30.905h38.632c8.534,0,15.453-6.919,15.453-15.453
	v-23.179C481.092,316.997,474.175,310.079,465.64,310.079z"/>
<polygon style="fill:#FFF9EB;" points="427.008,310.079 298.22,310.079 277.615,333.258 298.22,364.163 427.008,364.163 "/>
<path style="fill:#FF5368;" d="M259.604,310.079c-8.534,0-15.453,6.919-15.453,15.453v23.179c0,8.534,6.919,15.453,15.453,15.453
	h38.616v-54.085H259.604z"/>
<path style="fill:#C5324F;" d="M465.64,310.079h-15.453v23.179h-23.18h-20.605l20.605,30.905h38.632
	c8.534,0,15.453-6.919,15.453-15.453v-23.179C481.092,316.997,474.175,310.079,465.64,310.079z"/>
<polygon style="fill:#D3CDBF;" points="427.008,333.258 277.615,333.258 298.22,364.163 427.008,364.163 "/>
<path style="fill:#C5324F;" d="M244.151,333.258v15.453c0,8.534,6.919,15.453,15.453,15.453h38.616v-30.905H244.151z"/>
<path style="fill:#FFF9EB;" d="M465.64,255.994h-38.632l-20.605,23.179l20.605,30.905h38.632c8.534,0,15.453-6.919,15.453-15.453
	v-23.179C481.092,262.912,474.175,255.994,465.64,255.994z"/>
<polygon style="fill:#FF5368;" points="427.008,255.994 298.22,255.994 277.615,279.174 298.22,310.079 427.008,310.079 "/>
<path style="fill:#FFF9EB;" d="M259.604,255.994c-8.534,0-15.453,6.919-15.453,15.453v23.179c0,8.534,6.919,15.453,15.453,15.453
	h38.616v-54.085H259.604z"/>
<path style="fill:#D3CDBF;" d="M465.64,255.994h-15.453v23.179h-23.18h-20.605l20.605,30.905h38.632
	c8.534,0,15.453-6.919,15.453-15.453v-23.179C481.092,262.912,474.175,255.994,465.64,255.994z"/>
<polygon style="fill:#C5324F;" points="427.008,279.174 277.615,279.174 298.22,310.079 427.008,310.079 "/>
<path style="fill:#D3CDBF;" d="M244.151,279.174v15.453c0,8.534,6.919,15.453,15.453,15.453h38.616v-30.905H244.151z"/>
<path style="fill:#FF5368;" d="M465.64,201.91h-38.632l-20.605,23.179l20.605,30.905h38.632c8.534,0,15.453-6.919,15.453-15.453
	v-23.179C481.092,208.828,474.175,201.91,465.64,201.91z"/>
<polygon style="fill:#FFF9EB;" points="427.008,201.91 298.22,201.91 277.615,225.089 298.22,255.994 427.008,255.994 "/>
<path style="fill:#FF5368;" d="M259.604,201.91c-8.534,0-15.453,6.919-15.453,15.453v23.179c0,8.534,6.919,15.453,15.453,15.453
	h38.616V201.91H259.604z"/>
<path style="fill:#C5324F;" d="M465.64,201.91h-15.453v23.179h-23.18h-20.605l20.605,30.905h38.632
	c8.534,0,15.453-6.919,15.453-15.453v-23.179C481.092,208.828,474.175,201.91,465.64,201.91z"/>
<polygon style="fill:#D3CDBF;" points="427.008,225.089 277.615,225.089 298.22,255.994 427.008,255.994 "/>
<path style="fill:#C5324F;" d="M244.151,225.089v15.453c0,8.534,6.919,15.453,15.453,15.453h38.616v-30.905H244.151z"/>
<path style="fill:#FF5368;" d="M486.245,147.824h-38.632l-20.605,23.179l20.605,30.905h38.632c8.534,0,15.453-6.919,15.453-15.453
	v-23.179C501.697,154.743,494.779,147.824,486.245,147.824z"/>
<polygon style="fill:#FFF9EB;" points="447.613,147.824 318.825,147.824 298.22,171.003 318.825,201.909 447.613,201.909 "/>
<path style="fill:#FF5368;" d="M280.208,147.824c-8.534,0-15.453,6.919-15.453,15.453v23.179c0,8.534,6.919,15.453,15.453,15.453
	h38.616v-54.085H280.208z"/>
<path style="fill:#C5324F;" d="M486.245,147.824h-15.453v23.179h-23.18h-20.605l20.605,30.905h38.633
	c8.534,0,15.453-6.919,15.453-15.453v-23.179C501.697,154.743,494.779,147.824,486.245,147.824z"/>
<polygon style="fill:#D3CDBF;" points="447.613,171.003 298.22,171.003 318.825,201.909 447.613,201.909 "/>
<path style="fill:#C5324F;" d="M264.755,171.003v15.453c0,8.534,6.919,15.453,15.453,15.453h38.616v-30.905H264.755z"/>
<path style="fill:#FFF9EB;" d="M465.64,93.74h-38.632l-20.605,23.179l20.605,30.905h38.632c8.534,0,15.453-6.919,15.453-15.453
	v-23.179C481.092,100.659,474.175,93.74,465.64,93.74z"/>
<polygon style="fill:#FF5368;" points="427.008,93.74 298.22,93.74 277.615,116.919 298.22,147.824 427.008,147.824 "/>
<path style="fill:#FFF9EB;" d="M259.604,93.74c-8.534,0-15.453,6.919-15.453,15.453v23.179c0,8.534,6.919,15.453,15.453,15.453
	h38.616V93.74H259.604z"/>
<path style="fill:#D3CDBF;" d="M465.64,93.74h-15.453v23.179h-23.18h-20.605l20.605,30.905h38.632
	c8.534,0,15.453-6.919,15.453-15.453v-23.179C481.092,100.659,474.175,93.74,465.64,93.74z"/>
<polygon style="fill:#C5324F;" points="427.008,116.919 277.615,116.919 298.22,147.824 427.008,147.824 "/>
<path style="fill:#D3CDBF;" d="M244.151,116.919v15.453c0,8.534,6.919,15.453,15.453,15.453h38.616v-30.905H244.151z"/>
<circle style="fill:#FF5368;" cx="113.32" cy="304.933" r="113.32"/>
<g>
	<path style="fill:#FFF9EB;" d="M113.32,191.608c-15.365,0-30.013,3.065-43.376,8.606l43.376,104.714l43.375-104.714
		C143.333,194.672,128.685,191.608,113.32,191.608z"/>
	<path style="fill:#FFF9EB;" d="M0,304.928c0,15.365,3.064,30.013,8.604,43.375l104.716-43.375L8.605,261.554
		C3.064,274.916,0,289.563,0,304.928z"/>
</g>
<path id="SVGCleanerId_0" style="fill:#FFF9EB;" d="M226.64,304.928c0-15.364-3.064-30.012-8.604-43.374L113.32,304.928
	l104.715,43.375C223.576,334.94,226.64,320.293,226.64,304.928z"/>
<g>
	<path id="SVGCleanerId_0_1_" style="fill:#FFF9EB;" d="M226.64,304.928c0-15.364-3.064-30.012-8.604-43.374L113.32,304.928
		l104.715,43.375C223.576,334.94,226.64,320.293,226.64,304.928z"/>
</g>
<path style="fill:#FFF9EB;" d="M113.32,418.248c15.365,0,30.013-3.065,43.375-8.605L113.32,304.928L69.945,409.643
	C83.307,415.183,97.955,418.248,113.32,418.248z"/>
<path style="fill:#C5324F;" d="M193.435,224.813l-0.653,0.653c-11.015,11.015-13.328,27.839-6.174,41.676
	c5.967,11.541,9.126,24.42,9.126,37.786c0,22.014-8.572,42.71-24.139,58.275c-15.566,15.567-36.261,24.139-58.275,24.139
	c-13.366,0-26.245-3.16-37.786-9.126c-13.837-7.155-30.661-4.841-41.676,6.175l-0.653,0.653
	c20.715,20.717,49.401,33.462,81.074,33.201c61.545-0.51,111.846-50.81,112.357-112.355
	C226.898,274.215,214.153,245.528,193.435,224.813z"/>
<g>
	<path style="fill:#D3CDBF;" d="M218.025,261.558l-28.524,11.814c8.31,20.065,8.317,43.033,0,63.111l28.533,11.819
		c0.002-0.004,0.003-0.008,0.005-0.013C229.673,320.229,229.366,288.911,218.025,261.558z"/>
	<path style="fill:#D3CDBF;" d="M144.876,381.111c-20.065,8.31-43.035,8.316-63.113,0l-11.815,28.524
		c22.811,9.448,48.854,11.437,73.856,4.461c0.002,0,0.004-0.001,0.005-0.001c4.608-1.286,9.151-2.887,12.884-4.45L144.876,381.111z"
		/>
</g>
<path style="fill:#C5324F;" d="M113.32,364.163c-32.663,0-59.235-26.573-59.235-59.235s26.572-59.235,59.235-59.235
	s59.235,26.573,59.235,59.235S145.983,364.163,113.32,364.163z"/>
<path style="fill:#FFF9EB;" d="M124.337,312.974c11.5-11.257,3.487-30.905-12.607-30.905c-12.942,0-22.207,14.116-12.792,19.562
	c3.692,2.137,8.42,0.876,10.557-2.818c1.859-3.212,7.003,0.121,3.775,3.349c-17.106,12.829-19.671,13.587-19.559,18.71
	c0.091,4.213,3.558,7.554,7.718,7.554h23.694C135.058,328.426,135.986,312.974,124.337,312.974z"/>
<g>
</g>
<g>
</g>
<g>
</g>
<g>
</g>
<g>
</g>
<g>
</g>
<g>
</g>
<g>
</g>
<g>
</g>
<g>
</g>
<g>
</g>
<g>
</g>
<g>
</g>
<g>
</g>
<g>
</g>
</svg>
