<svg id="Capa_1" enable-background="new 0 0 512 512" height="512" viewBox="0 0 512 512" width="512" xmlns="http://www.w3.org/2000/svg"><g><g><g><g><g><g><g><circle cx="256" cy="256" fill="#ff6c52" r="256"/></g></g></g></g></g></g><path d="m512 256c0-7.444-.318-14.814-.94-22.098l-117.485-117.484-280.469 273.8 120.845 120.846c7.268.62 14.621.936 22.049.936 141.385 0 256-114.615 256-256z" fill="#f43425"/><g><g><g><g><g><g><path d="m452 255.979v.02c0 53.944-21.792 102.797-57.053 138.238l-138.826 57.761c-.179 0 .179.001 0 .001-52.602 0-100.484-20.722-135.689-54.448l-60.43-141.552c0-54.599 22.314-103.958 58.334-139.498l137.786-56.495c53.4.141 102.185 21.649 137.454 56.411z" fill="#fff"/></g></g></g></g></g></g><g><g><g><g><g><g><path d="m256.121 60.007c53.4.141 102.185 21.649 137.454 56.411l58.425 139.561v.02c0 53.944-21.792 102.797-57.053 138.238l-138.826 57.761v-347.449z" fill="#e9edf5"/></g></g></g></g></g></g><g><g><g><g><g><g><path d="m256.121 60.007c-.183 0 .183 0 0 0-53.658 0-102.392 21.563-137.786 56.495l137.786 138.777v-149.279z" fill="#ffce00"/></g><g><path d="m60.001 255.999c0 55.648 23.194 105.876 60.439 141.553l135.68-140.094v-1.478z" fill="#ffce00"/></g><g><path d="m256.121 255.981v-.702z" fill="#fff"/></g><g><path d="m393.575 116.418-137.454 139.563h195.879c-.005-54.628-22.368-104.023-58.425-139.563z" fill="#fdba12"/></g><g><path d="m256.121 255.981v.374z" fill="#fff"/></g><g><path d="m256.121 257.458v-1.103-.374z" fill="#fff"/></g><g><path d="m256.121 257.458v148.538 45.995c54.084-.148 103.443-22.203 138.82-57.756l-138.82-137.881z" fill="#fdba12"/></g></g></g></g></g></g><g><g><g><g><g><g><path d="m256.121 120.998c74.559 0 134.881 60.441 134.881 135 0 74.558-60.322 135-134.881 135-74.558 0-135.119-60.441-135.119-135-.001-74.558 60.56-135 135.119-135z" fill="#fff"/><path d="m391.001 255.998c0-74.518-60.377-134.934-134.881-134.998v269.997c74.504-.065 134.881-60.48 134.881-134.999z" fill="#e9edf5"/><path d="m256.121 405.998c-82.71 0-150.12-67.289-150.12-150s67.41-150 150.12-150c40.066 0 77.615 15.603 105.947 43.934 28.331 28.331 43.934 65.999 43.934 106.066-.001 82.71-67.171 150-149.881 150zm0-270c-66.168 0-120.12 53.832-120.12 120s53.952 120 120.12 120 119.88-53.832 119.88-120c0-32.053-12.482-62.188-35.148-84.853-22.664-22.665-52.68-35.147-84.732-35.147z" fill="#dce1eb"/><path d="m406.001 255.998c0-40.066-15.603-77.735-43.934-106.066-28.304-28.303-65.925-43.901-105.947-43.932v30c32.008.031 62.096 12.509 84.733 35.146 22.665 22.665 35.147 52.799 35.147 84.853 0 66.128-53.768 119.933-119.88 119.998v30c82.655-.066 149.881-67.329 149.881-149.999z" fill="#bec3d2"/></g></g></g></g></g></g><g><path d="m319.677 286.273c0-30.727-25.142-40.448-48.677-46.518v-32.536c9.75 2.599 19.112 7.38 26.872 14.564l18.325-24.125c-12.053-11.14-27.27-18.111-45.197-20.573v-17.095h-30v17.383c-27.51 4.976-43.807 23.777-43.807 45.803 0 28.794 21.784 38.753 43.807 44.775v36.732c-12.808-3.547-23.26-10.532-30.815-18.41l-17.862 25.053c11.521 11.707 27.509 20.437 48.677 23.447v17.237h30v-16.883c32.775-4.096 48.677-23.733 48.677-48.854zm-88.846-65.881c0-6.228 3.553-11.098 10.169-13.627v24.779c-6.226-2.614-10.169-5.972-10.169-11.152zm40.169 85.37v-30.046c9.097 3.055 15.272 7.062 15.272 14.268 0 6.655-5.024 13.046-15.272 15.778z" fill="#7e8596"/><path d="m319.677 286.273c0-30.729-25.142-40.449-48.677-46.519v-32.53c9.75 2.597 19.112 7.375 26.872 14.56l18.325-24.125c-12.053-11.14-27.271-18.108-45.197-20.569v-17.1h-14.879v192.02h14.879v-16.883c32.775-4.096 48.677-23.733 48.677-48.854zm-48.677 19.489v-30.046c9.097 3.055 15.272 7.062 15.272 14.268 0 6.655-5.024 13.046-15.272 15.778z" fill="#636978"/></g></g></svg>