<svg id="Capa_1" enable-background="new 0 0 512 512" height="512" viewBox="0 0 512 512" width="512" xmlns="http://www.w3.org/2000/svg"><g><g><path d="m477.733 127.983-93.715-93.716c-37.659-21.789-81.38-34.267-128.018-34.267l-128.017 34.267c-38.848 22.477-71.238 54.868-93.715 93.715l-34.268 128.018c0 46.638 12.477 90.358 34.267 128.017l93.715 93.715c37.659 21.79 81.38 34.268 128.018 34.268l128.018-34.267c38.847-22.477 71.238-54.868 93.715-93.715l34.267-128.018c0-46.638-12.478-90.358-34.267-128.017z" fill="#f9f9f9"/><g><path d="m477.733 127.983-93.715-93.716c-37.659-21.789-81.38-34.267-128.018-34.267v512l128.018-34.267c38.847-22.477 71.238-54.868 93.715-93.715l34.267-128.018c0-46.638-12.478-90.358-34.267-128.017z" fill="#e2dff4"/></g><g><path d="m256 112.183v-112.183c-46.638 0-90.358 12.477-128.017 34.267l60 103.923z" fill="#ff8659"/><path d="m384.018 34.267-60 103.923 73.715 35.981 80-46.188c-22.477-38.848-54.868-71.239-93.715-93.716z" fill="#ff4a4a"/><path d="m34.267 384.017c22.477 38.848 54.868 71.238 93.715 93.715l60-103.923-53.715-47.528z" fill="#ff8659"/><path d="m256 412v100c46.638 0 90.358-12.477 128.018-34.267l-51.962-90z" fill="#ff4a4a"/><path d="m512 256h-100l-24.267 76.056 90 51.962c21.789-37.659 34.267-81.38 34.267-128.018z" fill="#ff4a4a"/><path d="m34.267 127.982c-21.789 37.659-34.267 81.38-34.267 128.018h110l14.267-76.056z" fill="#ff8659"/></g><g><g><g><path d="m256 432c-97.047 0-176-78.953-176-176s78.953-176 176-176 176 78.953 176 176-78.953 176-176 176z" fill="#5e54ac"/></g></g><path d="m256 80v352c97.047 0 176-78.953 176-176s-78.953-176-176-176z" fill="#5E54AC"/><circle cx="256" cy="256" fill="#f9f9f9" r="146"/><path d="m402 256c0-80.505-65.495-146-146-146v292c80.505 0 146-65.495 146-146z" fill="#e2dff4"/></g></g><path d="m292.409 311c15.468 0 30.01-6.023 40.948-16.961 22.579-22.578 22.579-59.316 0-81.895l-66.75-66.75c-5.857-5.858-15.355-5.858-21.213 0l-66.75 66.75c-10.938 10.938-16.961 25.479-16.961 40.947s6.023 30.01 16.961 40.947c10.937 10.939 25.479 16.962 40.947 16.962 7.452 0 14.687-1.403 21.409-4.075v34.075h-25c-8.284 0-15 6.716-15 15s6.716 15 15 15h80c8.284 0 15-6.716 15-15s-6.716-15-15-15h-25v-34.075c6.722 2.672 13.957 4.075 21.409 4.075z" fill="#5e54ac"/><path d="m292.409 311c15.468 0 30.01-6.023 40.948-16.961 22.579-22.578 22.579-59.316 0-81.895l-66.75-66.75c-2.929-2.93-6.768-4.394-10.607-4.394v230h40c8.284 0 15-6.716 15-15s-6.716-15-15-15h-25v-34.075c6.722 2.672 13.957 4.075 21.409 4.075z" fill="#5E54AC"/></g></svg>