<svg id="Layer_5" enable-background="new 0 0 64 64" height="512" viewBox="0 0 64 64" width="512" xmlns="http://www.w3.org/2000/svg"><g><g><g><path d="m14 2v6h-4-2v-6z" fill="#e6e9ed"/></g><g><path d="m23 2c1.66 0 3 1.34 3 3 0 .83-.34 1.58-.88 2.12s-1.29.88-2.12.88h-1-2v-6z" fill="#e6e9ed"/></g><g><path d="m22 8v6h-2-4v-6h4z" fill="#e6e9ed"/></g><g><path d="m10 8v6h-2-1c-1.66 0-3-1.34-3-3 0-.83.34-1.58.88-2.12s1.29-.88 2.12-.88h1z" fill="#e6e9ed"/></g><g><path d="m14 14v6h-4-2v-6h2z" fill="#e6e9ed"/></g><g><path d="m23 14c1.66 0 3 1.34 3 3 0 .83-.34 1.58-.88 2.12s-1.29.88-2.12.88h-1-2v-6h2z" fill="#e6e9ed"/></g><g><path d="m22 20v6h-2-4v-6h4z" fill="#e6e9ed"/></g><g><path d="m10 20v6h-2-1c-1.66 0-3-1.34-3-3 0-.83.34-1.58.88-2.12s1.29-.88 2.12-.88h1z" fill="#e6e9ed"/></g><g><path d="m14 26v6h-4-2v-6h2z" fill="#e6e9ed"/></g><g><path d="m23 26c1.66 0 3 1.34 3 3 0 .83-.34 1.58-.88 2.12s-1.29.88-2.12.88h-1-2v-6h2z" fill="#e6e9ed"/></g><g><path d="m22 32v6h-2-4v-6h4z" fill="#e6e9ed"/></g><g><path d="m10 32v6h-2-1c-1.66 0-3-1.34-3-3 0-.83.34-1.58.88-2.12s1.29-.88 2.12-.88h1z" fill="#e6e9ed"/></g><g><path d="m16 38h4c-5.09 0-9.55 1.94-12 4.85v-4.85h2z" fill="#e6e9ed"/></g><g><path d="m8 2v6h-1-2c-1.66 0-3-1.34-3-3 0-.83.34-1.58.88-2.12s1.29-.88 2.12-.88z" fill="#ff826e"/></g><g><path d="m20 2v6h-4-2v-6z" fill="#ff826e"/></g><g><path d="m25 8c1.66 0 3 1.34 3 3 0 .83-.34 1.58-.88 2.12s-1.29.88-2.12.88h-2-1v-6h1z" fill="#ff826e"/></g><g><path d="m16 8v6h-2-4v-6h4z" fill="#ff826e"/></g><g><path d="m8 14v6h-1-2c-1.66 0-3-1.34-3-3 0-.83.34-1.58.88-2.12s1.29-.88 2.12-.88h2z" fill="#ff826e"/></g><g><path d="m20 14v6h-4-2v-6h2z" fill="#ff826e"/></g><g><path d="m25 20c1.66 0 3 1.34 3 3 0 .83-.34 1.58-.88 2.12s-1.29.88-2.12.88h-2-1v-6h1z" fill="#ff826e"/></g><g><path d="m16 20v6h-2-4v-6h4z" fill="#ff826e"/></g><g><path d="m8 26v6h-1-2c-1.66 0-3-1.34-3-3 0-.83.34-1.58.88-2.12s1.29-.88 2.12-.88h2z" fill="#ff826e"/></g><g><path d="m20 26v6h-4-2v-6h2z" fill="#ff826e"/></g><g><path d="m25 32c1.66 0 3 1.34 3 3 0 .83-.34 1.58-.88 2.12s-1.29.88-2.12.88h-3v-6h1z" fill="#ff826e"/></g><g><path d="m16 32v6h-6v-6h4z" fill="#ff826e"/></g><g><path d="m8 38v4.85c-.31.36-.59.75-.83 1.15h-2.17c-1.66 0-3-1.34-3-3s1.34-3 3-3h2z" fill="#ff826e"/></g><g><path d="m14 57.04v3.99c-4.73-1.6-8-5.04-8-9.03v-4c0 3.99 3.27 7.43 8 9.03z" fill="#e6e9ed"/></g><g><path d="m26 57.04v3.99c-1.81.62-3.85.97-6 .97v-4c2.15 0 4.19-.35 6-.97z" fill="#e6e9ed"/></g><g><path d="m20 58v4c-2.14 0-4.18-.35-6-.97v-3.99-.01c1.82.62 3.86.97 6 .97z" fill="#fcd770"/></g><g><path d="m62 28h-4c0-2.21-.9-4.21-2.34-5.66l2.83-2.83c2.17 2.17 3.51 5.17 3.51 8.49z" fill="#69d6f4"/></g><g><path d="m58 28h4c0 3.31-1.34 6.31-3.52 8.48l-2.82-2.82-.01-.01c1.45-1.44 2.35-3.44 2.35-5.65z" fill="#e6e9ed"/></g><g><path d="m58.49 19.51-2.83 2.83c-1.45-1.44-3.45-2.34-5.66-2.34v-4c3.32 0 6.32 1.34 8.49 3.51z" fill="#e6e9ed"/></g><g><path d="m55.66 33.66 2.82 2.82c-1.06 1.07-2.33 1.93-3.74 2.54-.27-.32-.55-.63-.84-.92-.84-.84-1.8-1.58-2.83-2.18 1.78-.24 3.38-1.06 4.58-2.27z" fill="#69d6f4"/></g><g><path d="m58 48h-4c0-2.76-1.12-5.26-2.93-7.07l2.83-2.83c.29.29.57.6.84.92 2.03 2.43 3.26 5.56 3.26 8.98z" fill="#e6e9ed"/></g><g><path d="m54 48h4c0 3.86-1.57 7.36-4.1 9.9l-2.83-2.83c1.81-1.81 2.93-4.31 2.93-7.07z" fill="#ff826e"/></g><g><path d="m58 28c0 2.21-.9 4.21-2.35 5.65-1.2 1.21-2.8 2.03-4.58 2.27 0-.01-.01 0-.01 0-1.88-1.11-4.03-1.78-6.32-1.9-1.68-1.47-2.74-3.62-2.74-6.02 0-2.21.9-4.21 2.34-5.66 1.45-1.44 3.45-2.34 5.66-2.34s4.21.9 5.66 2.34c1.44 1.45 2.34 3.45 2.34 5.66z" fill="#fcd770"/></g><g><path d="m44.74 34.02c2.29.12 4.44.79 6.32 1.9 0 0 .01-.01.01 0 1.03.6 1.99 1.34 2.83 2.18l-2.83 2.83c-1.81-1.81-4.31-2.93-7.07-2.93v-4c.25 0 .49.01.74.02z" fill="#ff826e"/></g><g><path d="m51.07 55.07 2.83 2.83c-2.54 2.53-6.04 4.1-9.9 4.1v-4c2.76 0 5.26-1.12 7.07-2.93z" fill="#e6e9ed"/></g><g><path d="m50 24 3 4-3 4-3-4z" fill="#ff826e"/></g><g><path d="m51.07 40.93c1.81 1.81 2.93 4.31 2.93 7.07s-1.12 5.26-2.93 7.07-4.31 2.93-7.07 2.93-5.26-1.12-7.07-2.93-2.93-4.31-2.93-7.07 1.12-5.26 2.93-7.07 4.31-2.93 7.07-2.93 5.26 1.12 7.07 2.93z" fill="#fcd770"/></g><g><path d="m50 16v4c-2.21 0-4.21.9-5.66 2.34l-2.83-2.83c2.17-2.17 5.17-3.51 8.49-3.51z" fill="#69d6f4"/></g><g><path d="m44.74 34.02c-.25-.01-.49-.02-.74-.02-1.4 0-2.75.21-4.02.59-1.25-1.89-1.98-4.15-1.98-6.59h4c0 2.4 1.06 4.55 2.74 6.02z" fill="#69d6f4"/></g><g><path d="m41.51 19.51 2.83 2.83c-1.44 1.45-2.34 3.45-2.34 5.66h-4c0-3.32 1.34-6.32 3.51-8.49z" fill="#e6e9ed"/></g><g><path d="m44 58v4c-3.86 0-7.36-1.57-9.9-4.1l2.83-2.83c1.81 1.81 4.31 2.93 7.07 2.93z" fill="#ff826e"/></g><g><path d="m44 34v4c-2.76 0-5.26 1.12-7.07 2.93l-2.83-2.83c1.62-1.61 3.63-2.84 5.88-3.51 1.27-.38 2.62-.59 4.02-.59z" fill="#e6e9ed"/></g><g><path d="m31.3 53.89c-.83-1.79-1.3-3.79-1.3-5.89h4c0 2.76 1.12 5.26 2.93 7.07l-2.83 2.83c-.52-.52-1-1.08-1.42-1.68-.54-.73-1-1.51-1.38-2.33z" fill="#e6e9ed"/></g><g><path d="m31.3 42.11c.69-1.5 1.65-2.85 2.8-4.01l2.83 2.83c-1.81 1.81-2.93 4.31-2.93 7.07h-4c0-2.1.47-4.1 1.3-5.89z" fill="#ff826e"/></g><g><path d="m31.3 53.89c.38.82.84 1.6 1.38 2.33-1.38 2.1-3.74 3.81-6.68 4.81v-3.99-.01c2.11-.72 3.93-1.81 5.3-3.14z" fill="#fcd770"/></g><g><path d="m31.3 42.11c-2.55-2.48-6.66-4.11-11.3-4.11-5.09 0-9.55 1.94-12 4.85-.31.36-.59.75-.83 1.15-.75 1.22-1.17 2.58-1.17 4 0 3.99 3.27 7.43 8 9.03 1.82.62 3.86.97 6 .97 2.15 0 4.19-.35 6-.97 2.11-.72 3.93-1.81 5.3-3.14-.83-1.79-1.3-3.79-1.3-5.89s.47-4.1 1.3-5.89z" fill="#ffeaa7"/></g><g><ellipse cx="20" cy="48" fill="#fcd770" rx="10" ry="6"/></g></g><g><path d="m45 41h-2v2c-1.654 0-3 1.346-3 3s1.346 3 3 3h2c.552 0 1 .449 1 1s-.448 1-1 1h-3v-1h-2v3h3v2h2v-2c1.654 0 3-1.346 3-3s-1.346-3-3-3h-2c-.552 0-1-.449-1-1s.448-1 1-1h3v1h2v-3h-3z"/><path d="m63 28c0-7.168-5.832-13-13-13s-13 5.832-13 13c0 2.124.523 4.193 1.508 6.055-3.172 1.254-5.813 3.555-7.5 6.48-1.119-.892-2.413-1.623-3.829-2.189 1.094-.714 1.821-1.945 1.821-3.346 0-1.744-1.128-3.214-2.688-3.761.434-.639.688-1.41.688-2.239s-.254-1.6-.688-2.239c1.56-.547 2.688-2.017 2.688-3.761s-1.128-3.214-2.688-3.761c.434-.639.688-1.41.688-2.239s-.254-1.6-.688-2.239c1.56-.547 2.688-2.017 2.688-3.761s-1.128-3.214-2.688-3.761c.434-.639.688-1.41.688-2.239 0-2.206-1.794-4-4-4h-18c-2.206 0-4 1.794-4 4 0 1.744 1.128 3.214 2.688 3.761-.434.639-.688 1.41-.688 2.239s.254 1.6.688 2.239c-1.56.547-2.688 2.017-2.688 3.761s1.128 3.214 2.688 3.761c-.434.639-.688 1.41-.688 2.239s.254 1.6.688 2.239c-1.56.547-2.688 2.017-2.688 3.761s1.128 3.214 2.688 3.761c-.434.639-.688 1.41-.688 2.239s.254 1.6.688 2.239c-1.56.547-2.688 2.017-2.688 3.761 0 2.206 1.794 4 4 4h.581c-.37.955-.581 1.959-.581 3v4c0 6.065 6.729 11 15 11 5.26 0 9.986-1.952 12.705-5.161 2.752 3.155 6.789 5.161 11.295 5.161 8.271 0 15-6.729 15-15 0-3.206-1.02-6.174-2.74-8.615 4.129-2.27 6.74-6.609 6.74-11.385zm-5.982 5.604c1.04-1.3 1.726-2.884 1.92-4.604h2.012c-.205 2.251-1.094 4.345-2.501 6.034zm-13.018 23.396c-4.963 0-9-4.038-9-9s4.037-9 9-9 9 4.038 9 9-4.037 9-9 9zm7.034-17.448c-1.667-1.391-3.751-2.294-6.034-2.501v-2c2.833.217 5.411 1.341 7.447 3.088zm-8.034-2.501c-2.283.207-4.366 1.111-6.034 2.501l-1.414-1.414c2.036-1.747 4.615-2.871 7.447-3.088v2.001zm-7.448 3.915c-1.391 1.667-2.294 3.751-2.501 6.034h-2c.217-2.833 1.341-5.411 3.088-7.447zm-4.501 8.034h2c.207 2.283 1.111 4.366 2.501 6.034l-1.414 1.414c-1.747-2.037-2.87-4.615-3.087-7.448zm5.915 7.448c1.667 1.391 3.751 2.294 6.034 2.501v2c-2.833-.217-5.411-1.341-7.447-3.088zm8.034 2.501c2.283-.207 4.366-1.111 6.034-2.501l1.414 1.414c-2.036 1.747-4.615 2.871-7.447 3.088v-2.001zm7.448-3.915c1.391-1.667 2.294-3.751 2.501-6.034h2c-.217 2.833-1.341 5.411-3.088 7.447zm2.501-8.034c-.207-2.283-1.111-4.366-2.501-6.034l1.414-1.414c1.747 2.036 2.871 4.615 3.088 7.447h-2.001zm-9.762-13.94c-1.389-1.322-2.187-3.144-2.187-5.06 0-3.86 3.141-7 7-7s7 3.14 7 7c0 3.384-2.454 6.28-5.756 6.874-1.821-1.009-3.875-1.642-6.057-1.814zm-4.128-6.06h-2.008c.207-2.283 1.111-4.366 2.501-6.034l1.423 1.423c-1.036 1.295-1.723 2.878-1.916 4.611zm17.882 0c-.193-1.733-.88-3.316-1.916-4.611l1.423-1.423c1.391 1.667 2.294 3.751 2.501 6.034zm-3.33-6.025c-1.295-1.036-2.878-1.724-4.611-1.916v-2.008c2.283.207 4.367 1.111 6.034 2.502zm-6.611-1.916c-1.733.193-3.317.88-4.611 1.916l-1.423-1.423c1.667-1.391 3.751-2.295 6.034-2.502zm-9.949 9.941h2.007c.165 1.468.699 2.861 1.529 4.072-.731.069-1.441.201-2.138.371-.783-1.368-1.256-2.878-1.398-4.443zm-34.051 6c0-1.103.897-2 2-2h2v4h-2c-1.103 0-2-.897-2-2zm0-12c0-1.103.897-2 2-2h2v4h-2c-1.103 0-2-.897-2-2zm0-12c0-1.103.897-2 2-2h2v4h-2c-1.103 0-2-.897-2-2zm20 6c0 1.103-.897 2-2 2h-2v-4h2c1.103 0 2 .897 2 2zm0 12c0 1.103-.897 2-2 2h-2v-4h2c1.103 0 2 .897 2 2zm-10 4v4h-4v-4zm0-2v-4h4v4zm0-10v4h-4v-4zm0-12v4h-4v-4zm4 6v4h-4v-4zm-2 10v-4h4v4zm0-12v-4h4v4zm-2-6v-4h4v4zm-2 0h-4v-4h4zm0 8v4h-4v-4zm0 12v4h-4v-4zm-4 12h2.402c-.876.451-1.677.972-2.402 1.547zm8-2v-4h4v4zm10-2c0 1.103-.897 2-2 2h-2v-4h2c1.103 0 2 .897 2 2zm0-12c0 1.103-.897 2-2 2h-2v-4h2c1.103 0 2 .897 2 2zm0-12c0 1.103-.897 2-2 2h-2v-4h2c1.103 0 2 .897 2 2zm-2-6c0 1.103-.897 2-2 2h-2v-4h2c1.103 0 2 .897 2 2zm-22 0c0-1.103.897-2 2-2h2v4h-2c-1.103 0-2-.897-2-2zm0 12c0-1.103.897-2 2-2h2v4h-2c-1.103 0-2-.897-2-2zm0 12c0-1.103.897-2 2-2h2v4h-2c-1.103 0-2-.897-2-2zm2 14c-1.103 0-2-.897-2-2s.897-2 2-2h2v3.536c-.12.152-.234.307-.344.464zm15-4c3.92 0 7.627 1.266 10.097 3.394-.274.677-.493 1.38-.667 2.102-1.838-1.982-5.178-3.496-9.43-3.496-6.58 0-11 3.62-11 7s4.42 7 11 7c4.252 0 7.592-1.514 9.43-3.496.174.722.393 1.425.667 2.102-2.47 2.128-6.177 3.394-10.097 3.394-7.168 0-13-4.038-13-9s5.832-9 13-9zm9 9c0 2.088-3.424 5-9 5s-9-2.912-9-5 3.424-5 9-5 9 2.912 9 5zm-10 10.963v2.002c-1.407-.075-2.753-.298-4-.659v-1.947c1.265.329 2.605.536 4 .604zm2-.005c1.383-.066 2.727-.255 4-.583v1.916c-1.26.369-2.607.605-4 .681zm-13.744-5.185c1.404 1.66 3.382 3.03 5.744 3.948v1.85c-2.914-1.295-5.04-3.368-5.744-5.798zm19.744 5.79v-1.834c1.487-.576 2.841-1.335 4.008-2.265.145.251.293.501.452.742-1.069 1.386-2.617 2.534-4.46 3.357zm26.392-23.241c.805-.329 1.552-.765 2.218-1.298l1.427 1.428c-.627.522-1.319.977-2.064 1.355-.493-.53-1.016-1.03-1.581-1.485z"/><path d="m45.75 28 4.25 5.667 4.25-5.667-4.25-5.667zm4.25 2.333-1.75-2.333 1.75-2.333 1.75 2.333z"/></g></g></svg>